<svg width="20" height="20" viewBox="0 0 20 20" fill="none" xmlns="http://www.w3.org/2000/svg">
<rect width="20" height="20" rx="10" fill="#697077"/>
<path d="M13.5326 13.2322C13.3432 13.2322 13.1616 13.1569 13.0276 13.023C12.8937 12.889 12.8185 12.7074 12.8184 12.518L12.8184 8.18142L6.96661 14.0332C6.83266 14.1672 6.65098 14.2424 6.46153 14.2424C6.27209 14.2424 6.09041 14.1672 5.95646 14.0332C5.8225 13.8993 5.74725 13.7176 5.74725 13.5282C5.74725 13.3387 5.8225 13.157 5.95646 13.0231L11.8083 7.17127H7.47169C7.28443 7.16801 7.10593 7.09134 6.97466 6.95776C6.84338 6.82418 6.76981 6.64438 6.76982 6.45709C6.76981 6.2698 6.84338 6.09 6.97465 5.95642C7.10593 5.82284 7.28443 5.74617 7.47169 5.74291L13.5326 5.74291C13.722 5.74294 13.9036 5.81819 14.0376 5.95212C14.1715 6.08605 14.2468 6.26769 14.2468 6.45709L14.2468 12.518C14.2468 12.7074 14.1715 12.889 14.0376 13.023C13.9036 13.1569 13.722 13.2322 13.5326 13.2322Z" fill="#21272A"/>
</svg>
