<svg width="24" height="24" viewBox="0 0 24 24" fill="none" xmlns="http://www.w3.org/2000/svg">
<g clip-path="url(#clip0_249_1069)">
<path d="M21.05 10.384V10.3817C21.0494 9.88729 20.9206 9.40746 20.6765 8.99233C20.5702 8.81176 20.4397 8.64075 20.2884 8.48381C20.1725 8.36343 20.0431 8.25149 19.9053 8.15136C19.8164 8.08668 19.7326 8.03211 19.6505 7.9843L13.442 4.3752C13.4133 4.35888 13.388 4.34651 13.37 4.33807C13.2524 4.27451 13.1298 4.21938 12.9942 4.16988C12.8705 4.12488 12.7411 4.08775 12.6095 4.06019C12.4834 4.03375 12.3535 4.01575 12.2241 4.00675C12.0964 3.99775 11.9665 3.99775 11.8388 4.00675C11.7094 4.01575 11.5795 4.03375 11.4535 4.06019C11.3213 4.08775 11.1919 4.12488 11.0682 4.17044C10.9354 4.21882 10.8094 4.27563 10.6924 4.33863C10.6772 4.34538 10.6502 4.35832 10.6198 4.37576L4.41135 7.9843C4.32922 8.03211 4.24597 8.08668 4.15653 8.15136C4.01815 8.25149 3.88934 8.36287 3.77346 8.48325C3.62214 8.64019 3.49164 8.8112 3.38532 8.99233C3.23288 9.25221 3.12488 9.53797 3.06581 9.8361H3V17.056C3 18.7334 4.36466 20.0981 6.04208 20.0981H18.0079C19.6853 20.0981 21.05 18.7334 21.05 17.056V10.4155V10.3846V10.384ZM14.9236 18.973H9.12636V17.9633C9.12636 17.542 9.46893 17.1994 9.89025 17.1994H14.1592C14.5805 17.1994 14.9231 17.542 14.9231 17.9633V18.973H14.9236ZM19.925 17.056C19.925 18.113 19.0649 18.973 18.0079 18.973H16.0487V17.9633C16.0487 16.9215 15.201 16.0744 14.1597 16.0744H9.89082C8.84904 16.0744 8.00189 16.9221 8.00189 17.9633V18.973H6.04265C4.98568 18.973 4.12559 18.113 4.12559 17.056V10.9611H4.14134L4.13797 10.3952C4.13628 10.096 4.21166 9.80797 4.35623 9.56159C4.41754 9.45753 4.49404 9.3574 4.58404 9.26402C4.6538 9.19146 4.73255 9.12339 4.81636 9.06264C4.87599 9.01989 4.92718 8.98614 4.97724 8.95689L11.1711 5.35623C11.1885 5.34779 11.206 5.33935 11.2229 5.33035C11.2937 5.29154 11.3691 5.25778 11.454 5.22685C11.5272 5.19985 11.6048 5.17791 11.6847 5.16103C11.7601 5.14528 11.8371 5.13459 11.9153 5.12897C11.9918 5.12391 12.0694 5.12391 12.1459 5.12897C12.2236 5.13403 12.3012 5.14528 12.3766 5.16103C12.4564 5.17791 12.5335 5.19985 12.6066 5.22628C12.6916 5.25722 12.7675 5.29154 12.8378 5.32979C12.8541 5.33879 12.8705 5.34666 12.8901 5.35566L19.0846 8.95632C19.1346 8.98558 19.1858 9.01933 19.2454 9.06208C19.3298 9.12283 19.408 9.19089 19.4783 9.26346C19.5683 9.35684 19.6448 9.45696 19.7061 9.56103C19.8507 9.80741 19.9261 10.0954 19.9244 10.3981V17.0554L19.925 17.056Z" fill="#697077"/>
</g>
<defs>
<clipPath id="clip0_249_1069">
<rect width="18.05" height="16.0981" fill="white" transform="translate(3 4)"/>
</clipPath>
</defs>
</svg>
