<svg width="24" height="24" viewBox="0 0 24 24" fill="none" xmlns="http://www.w3.org/2000/svg">
<g clip-path="url(#clip0_138_4309)">
<path d="M21.0528 10.2268V10.225C21.0552 9.8128 20.955 9.3988 20.7372 9.0286C20.6478 8.8768 20.538 8.7328 20.409 8.5984C20.3112 8.497 20.202 8.4016 20.0808 8.314C20.0106 8.263 19.9374 8.2138 19.8594 8.1682L19.7526 8.1064L19.4244 7.9156L19.0962 7.7248L18.768 7.534L18.4398 7.3432L18.1116 7.1524L17.7834 6.9616L17.4552 6.7708L17.127 6.58L16.7988 6.3892L16.4706 6.1984L16.1424 6.0076L15.8142 5.8168L15.486 5.626L15.1578 5.4352L14.8296 5.2444L14.5014 5.0536L14.1732 4.8628L13.845 4.672L13.5168 4.4812L13.2426 4.3216C13.2252 4.3114 13.206 4.3048 13.1886 4.2946C13.0824 4.2364 12.972 4.1878 12.8604 4.147C12.7524 4.1074 12.6432 4.0768 12.5322 4.0534C12.4236 4.0306 12.3138 4.0156 12.204 4.0078C12.0942 4 11.985 4 11.8758 4.0078C11.7654 4.0156 11.6562 4.0306 11.5476 4.0534C11.4366 4.0768 11.3268 4.1074 11.2194 4.147C11.1072 4.1878 10.9974 4.2364 10.8912 4.2946C10.8732 4.3042 10.8546 4.3114 10.8372 4.3216L10.563 4.4812L10.2348 4.672L9.906 4.8628L9.5778 5.0536L9.2496 5.2444L8.9214 5.4352L8.5932 5.626L8.265 5.8168L7.9368 6.0076L7.6086 6.1984L7.2804 6.3892L6.9522 6.58L6.624 6.7708L6.2958 6.9616L5.9676 7.1524L5.6394 7.3432L5.3112 7.534L4.983 7.7248L4.6548 7.9156L4.3266 8.1064L4.2198 8.1682C4.1412 8.2138 4.0686 8.263 3.9984 8.314C3.8766 8.4016 3.7674 8.497 3.6702 8.5984C3.5412 8.7322 3.4308 8.8762 3.342 9.0286C3.111 9.3988 3.0102 9.8128 3.0132 10.225H3V17.326C3 18.7804 4.1904 19.9708 5.6448 19.9708H18.408C19.8624 19.9708 21.0528 18.7804 21.0528 17.326V10.243C21.0528 10.2376 21.0528 10.2328 21.0528 10.2274V10.2268Z" fill="url(#paint0_linear_138_4309)"/>
<path d="M9.74938 16.8784H14.3028C15.084 16.8784 15.7176 17.5126 15.7176 18.2932V19.9702H8.33398V18.2932C8.33398 17.512 8.96818 16.8784 9.74878 16.8784H9.74938Z" fill="url(#paint1_linear_138_4309)"/>
</g>
<defs>
<linearGradient id="paint0_linear_138_4309" x1="2.7606" y1="11.9854" x2="21.4722" y2="11.9854" gradientUnits="userSpaceOnUse">
<stop stop-color="#DEFFFF"/>
<stop offset="1" stop-color="#7FF5FD"/>
</linearGradient>
<linearGradient id="paint1_linear_138_4309" x1="8.33458" y1="18.4246" x2="15.7182" y2="18.4246" gradientUnits="userSpaceOnUse">
<stop stop-color="#9B8BF9"/>
<stop offset="1" stop-color="#6C54F6"/>
</linearGradient>
<clipPath id="clip0_138_4309">
<rect width="18.0528" height="15.9708" fill="white" transform="translate(3 4)"/>
</clipPath>
</defs>
</svg>
