<svg width="220" height="48" viewBox="0 0 220 48" fill="none" xmlns="http://www.w3.org/2000/svg">
<g clip-path="url(#clip0_0_696)">
<path d="M46.9709 22.0893C45.6307 17.6181 35.1493 16.8129 23.1715 20.1057L23.5684 18.6459L24.6419 14.7116L25.5723 18.1549C27.934 17.6181 30.2567 17.2319 32.4558 17.0093L28.3179 7H20.6732L14.7917 21.6114L14.089 23.3593C5.50091 27.2216 0.035771 32.3081 1.14181 36.0002C2.54063 40.6743 13.9394 41.3485 26.5938 37.5059C27.921 37.1065 29.2027 36.6679 30.4454 36.2031L30.7902 37.4731L31.4733 40H41.9742L39.2872 33.5061L38.7797 32.2884C44.5376 28.8909 47.8623 25.0417 46.9709 22.0893ZM37.9144 30.1936L37.5631 29.336L37.3939 28.9302L34.3751 21.6245C33.6919 21.5525 32.9632 21.5132 32.189 21.5132C30.4454 21.5132 28.5716 21.703 26.6328 22.0565L28.0511 27.3001L28.9099 30.4882L29.7427 33.5715L30.0875 34.8415C28.8644 35.3521 27.5697 35.8169 26.2229 36.2293C16.8541 39.077 8.29204 38.167 7.10142 34.2C6.3402 31.6534 8.79952 28.4719 13.1326 25.7618L12.2543 27.9351L11.6427 29.4473L9.36555 35.1034C10.6603 36.0264 13.009 36.5763 15.9367 36.5763C16.8346 36.5763 17.7715 36.5239 18.7279 36.4257L22.3648 23.0909L22.7682 21.6179C31.7987 19.078 39.8793 20.0468 41.0308 23.8961C41.5969 25.7945 40.3737 28.0464 37.9209 30.1936H37.9144Z" fill="#6C54F6"/>
<g clip-path="url(#clip1_0_696)">
<path d="M72.1719 29.0644H64.9765L63.7916 32.4335H60.0001L66.4845 14.7665H70.7069L77.1914 32.4335H73.3567L72.1719 29.0644ZM71.2024 26.2427L68.5957 18.8726L65.989 26.2427H71.2024Z" fill="#6C54F6"/>
<path d="M91.689 19.7988C92.7446 20.8517 93.2617 22.3257 93.2617 24.1998V32.4121H89.6424V24.6841C89.6424 23.5681 89.3624 22.7258 88.7807 22.1151C88.1991 21.5045 87.4451 21.2097 86.4541 21.2097C85.4631 21.2097 84.666 21.5045 84.0843 22.1151C83.5027 22.7047 83.2226 23.5681 83.2226 24.6841V32.4121H79.6034V18.4091H83.2226V20.1568C83.6966 19.5461 84.3213 19.0829 85.0753 18.7249C85.8293 18.388 86.648 18.1985 87.5528 18.1985C89.2547 18.1985 90.6334 18.7249 91.689 19.7778V19.7988Z" fill="#6C54F6"/>
<path d="M105.133 18.8302C105.952 19.2513 106.577 19.7778 107.051 20.4306V18.4301H110.692V32.5385C110.692 33.844 110.433 35.0022 109.894 36.0129C109.356 37.0237 108.559 37.8449 107.482 38.4345C106.404 39.0241 105.112 39.34 103.604 39.34C101.579 39.34 99.8985 38.8767 98.6059 37.9502C97.3133 37.0237 96.5593 35.7602 96.387 34.1599H99.9846C100.179 34.7916 100.588 35.318 101.213 35.6971C101.837 36.0761 102.613 36.2656 103.496 36.2656C104.552 36.2656 105.392 35.9497 106.06 35.3391C106.728 34.7284 107.051 33.8019 107.051 32.5385V30.3696C106.577 31.0224 105.952 31.5698 105.133 32.012C104.315 32.4542 103.388 32.6648 102.333 32.6648C101.126 32.6648 100.028 32.37 99.0152 31.7594C98.0242 31.1487 97.2271 30.3064 96.6455 29.1904C96.0638 28.0954 95.7838 26.8109 95.7838 25.379C95.7838 23.9471 96.0638 22.7047 96.6455 21.6098C97.2271 20.5148 98.0027 19.6725 98.9937 19.0829C99.9846 18.4933 101.083 18.1985 102.311 18.1985C103.388 18.1985 104.315 18.4091 105.133 18.8091V18.8302ZM106.534 23.2101C106.189 22.5995 105.715 22.1151 105.133 21.7993C104.552 21.4624 103.927 21.315 103.238 21.315C102.548 21.315 101.945 21.4834 101.385 21.7993C100.825 22.1151 100.351 22.5784 100.006 23.2101C99.6615 23.8208 99.4676 24.5578 99.4676 25.4001C99.4676 26.2424 99.64 26.9794 100.006 27.6111C100.351 28.2428 100.825 28.7271 101.406 29.064C101.988 29.4009 102.591 29.5694 103.259 29.5694C103.927 29.5694 104.552 29.4009 105.155 29.0851C105.737 28.7482 106.211 28.2849 106.555 27.6742C106.9 27.0636 107.072 26.3266 107.072 25.4632C107.072 24.5999 106.9 23.8629 106.555 23.2522L106.534 23.2101Z" fill="#6C54F6"/>
<path d="M127.452 26.4946H116.982C117.068 27.5054 117.434 28.3055 118.059 28.8741C118.705 29.4426 119.481 29.7374 120.407 29.7374C121.743 29.7374 122.712 29.1689 123.272 28.0529H127.172C126.762 29.4005 125.965 30.5165 124.802 31.3799C123.639 32.2432 122.195 32.6854 120.493 32.6854C119.115 32.6854 117.887 32.3906 116.788 31.78C115.689 31.1904 114.849 30.327 114.224 29.2321C113.621 28.1371 113.298 26.8736 113.298 25.4418C113.298 24.0099 113.6 22.7254 114.203 21.6304C114.806 20.5354 115.646 19.6931 116.745 19.1035C117.844 18.5139 119.072 18.2191 120.493 18.2191C121.915 18.2191 123.079 18.5139 124.156 19.0825C125.233 19.651 126.073 20.4722 126.655 21.5251C127.258 22.578 127.538 23.7782 127.538 25.147C127.538 25.6523 127.495 26.1156 127.43 26.5157L127.452 26.4946ZM123.811 24.1151C123.811 23.2097 123.466 22.4727 122.798 21.9252C122.152 21.3777 121.334 21.104 120.386 21.104C119.481 21.104 118.727 21.3777 118.124 21.9041C117.52 22.4306 117.133 23.1676 117.003 24.1151H123.811Z" fill="#6C54F6"/>
<path d="M133.807 13.7341V32.433H130.187V13.7341H133.807Z" fill="#6C54F6"/>
<path d="M150.114 24.8734C150.761 25.6736 151.105 26.6001 151.105 27.653C151.105 28.6005 150.868 29.4218 150.394 30.1377C149.92 30.8537 149.231 31.4222 148.348 31.8223C147.465 32.2224 146.387 32.433 145.159 32.433H137.382V14.787H144.836C146.064 14.787 147.12 14.9765 148.003 15.3766C148.886 15.7556 149.554 16.3031 150.028 16.998C150.481 17.6929 150.718 18.472 150.718 19.3564C150.718 20.3882 150.438 21.2516 149.877 21.9254C149.317 22.5992 148.563 23.1046 147.637 23.3994C148.649 23.5889 149.49 24.0732 150.136 24.8945L150.114 24.8734ZM141.002 22.0728H144.319C145.181 22.0728 145.849 21.8833 146.301 21.5042C146.775 21.1252 146.991 20.5777 146.991 19.8828C146.991 19.188 146.754 18.6194 146.301 18.2404C145.827 17.8613 145.181 17.6508 144.319 17.6508H141.002V22.0728ZM146.689 28.9375C147.185 28.5374 147.422 27.9688 147.422 27.2108C147.422 26.4527 147.163 25.8631 146.646 25.4209C146.129 24.9998 145.44 24.7681 144.556 24.7681H140.98V29.5271H144.621C145.504 29.5271 146.194 29.3165 146.667 28.9164L146.689 28.9375Z" fill="#6C54F6"/>
<path d="M159.442 18.8508C160.196 18.4297 161.058 18.2191 162.006 18.2191V21.9252H161.058C159.916 21.9252 159.054 22.1779 158.494 22.7043C157.912 23.2307 157.632 24.1362 157.632 25.4418V32.4117H154.013V18.4086H157.632V20.5775C158.106 19.8405 158.709 19.2509 159.463 18.8298L159.442 18.8508Z" fill="#6C54F6"/>
<path d="M168.061 18.4299V32.433H164.442V18.4299H168.061Z" fill="#6C54F6"/>
<path d="M171.571 21.6101C172.152 20.5151 172.928 19.6728 173.94 19.0832C174.931 18.4936 176.052 18.1988 177.279 18.1988C178.206 18.1988 179.089 18.3883 179.951 18.7884C180.791 19.1885 181.459 19.7149 181.976 20.3677V13.7136H185.638V32.4125H181.976V30.3488C181.523 31.0437 180.899 31.5912 180.08 32.0124C179.261 32.4335 178.335 32.6441 177.258 32.6441C176.052 32.6441 174.953 32.3493 173.94 31.7386C172.949 31.128 172.152 30.2857 171.571 29.1696C170.989 28.0747 170.709 26.7902 170.709 25.3583C170.709 23.9264 170.989 22.684 171.571 21.589V21.6101ZM181.459 23.2104C181.114 22.5998 180.64 22.1155 180.059 21.7996C179.477 21.4627 178.852 21.3153 178.163 21.3153C177.473 21.3153 176.87 21.4837 176.31 21.7996C175.75 22.1155 175.276 22.5787 174.931 23.2104C174.587 23.8211 174.393 24.5581 174.393 25.4004C174.393 26.2427 174.565 26.9797 174.931 27.6114C175.276 28.2431 175.75 28.7274 176.332 29.0644C176.913 29.4013 177.516 29.5697 178.184 29.5697C178.852 29.5697 179.477 29.4013 180.08 29.0854C180.662 28.7485 181.136 28.2852 181.48 27.6746C181.825 27.0639 181.997 26.3269 181.997 25.4636C181.997 24.6002 181.825 23.8632 181.48 23.2526L181.459 23.2104Z" fill="#6C54F6"/>
<path d="M197.573 18.8302C198.391 19.2513 199.016 19.7778 199.49 20.4306V18.4301H203.131V32.5385C203.131 33.844 202.872 35.0022 202.334 36.0129C201.795 37.0237 200.998 37.8449 199.921 38.4345C198.844 39.0241 197.551 39.34 196.043 39.34C194.018 39.34 192.338 38.8767 191.045 37.9502C189.753 37.0237 188.999 35.7602 188.826 34.1599H192.424C192.618 34.7916 193.027 35.318 193.652 35.6971C194.277 36.0761 195.052 36.2656 195.935 36.2656C196.991 36.2656 197.831 35.9497 198.499 35.3391C199.167 34.7284 199.49 33.8019 199.49 32.5385V30.3696C199.016 31.0224 198.391 31.5698 197.573 32.012C196.754 32.4542 195.828 32.6648 194.772 32.6648C193.566 32.6648 192.467 32.37 191.455 31.7594C190.464 31.1487 189.666 30.3064 189.085 29.1904C188.503 28.0954 188.223 26.8109 188.223 25.379C188.223 23.9471 188.503 22.7047 189.085 21.6098C189.666 20.5148 190.442 19.6725 191.433 19.0829C192.424 18.4933 193.523 18.1985 194.751 18.1985C195.828 18.1985 196.754 18.4091 197.573 18.8091V18.8302ZM198.973 23.2101C198.628 22.5995 198.154 22.1151 197.573 21.7993C196.991 21.4624 196.366 21.315 195.677 21.315C194.988 21.315 194.384 21.4834 193.824 21.7993C193.264 22.1151 192.79 22.5784 192.446 23.2101C192.101 23.8208 191.907 24.5578 191.907 25.4001C191.907 26.2424 192.079 26.9794 192.446 27.6111C192.79 28.2428 193.264 28.7271 193.846 29.064C194.427 29.4009 195.031 29.5694 195.699 29.5694C196.366 29.5694 196.991 29.4009 197.594 29.0851C198.176 28.7482 198.65 28.2849 198.995 27.6742C199.339 27.0636 199.512 26.3266 199.512 25.4632C199.512 24.5999 199.339 23.8629 198.995 23.2522L198.973 23.2101Z" fill="#6C54F6"/>
<path d="M219.893 26.4946H209.423C209.509 27.5054 209.876 28.3055 210.5 28.8741C211.147 29.4426 211.922 29.7374 212.849 29.7374C214.184 29.7374 215.154 29.1689 215.714 28.0529H219.613C219.204 29.4005 218.407 30.5165 217.243 31.3799C216.08 32.2432 214.637 32.6854 212.935 32.6854C211.556 32.6854 210.328 32.3906 209.229 31.78C208.131 31.1904 207.291 30.327 206.666 29.2321C206.063 28.1371 205.739 26.8736 205.739 25.4418C205.739 24.0099 206.041 22.7254 206.644 21.6304C207.247 20.5354 208.088 19.6931 209.186 19.1035C210.285 18.5139 211.513 18.2191 212.935 18.2191C214.357 18.2191 215.52 18.5139 216.597 19.0825C217.674 19.651 218.514 20.4722 219.096 21.5251C219.699 22.578 219.979 23.7782 219.979 25.147C219.979 25.6523 219.936 26.1156 219.872 26.5157L219.893 26.4946ZM216.252 24.1151C216.252 23.2097 215.908 22.4727 215.24 21.9252C214.594 21.3777 213.775 21.104 212.827 21.104C211.922 21.104 211.168 21.3777 210.565 21.9041C209.962 22.4306 209.574 23.1676 209.445 24.1151H216.252Z" fill="#6C54F6"/>
<path d="M166.228 8.68066L165.258 11.9656L163.944 11.1022L164.828 12.3867L161.467 13.3343V13.3554L164.828 14.3029L163.944 15.5874V15.6085L165.258 14.7241L166.228 18.009H166.249L167.219 14.7241L168.533 15.6085L168.555 15.5874L167.736 14.4504L176.159 13.3554V13.3343L167.736 12.2604L168.555 11.1022H168.533L167.219 11.9656L166.249 8.68066H166.228Z" fill="#6C54F6"/>
</g>
</g>
<defs>
<clipPath id="clip0_0_696">
<rect width="220" height="48" fill="white"/>
</clipPath>
<clipPath id="clip1_0_696">
<rect width="160" height="30.6383" fill="white" transform="translate(60.0001 8.68091)"/>
</clipPath>
</defs>
</svg>
