<svg width="128" height="28" viewBox="0 0 128 28" fill="none" xmlns="http://www.w3.org/2000/svg">
<g clip-path="url(#clip0_0_727)">
<g clip-path="url(#clip1_0_727)">
<path d="M28.2347 12.8854C27.4529 10.2772 21.3388 9.80753 14.3518 11.7283L14.5833 10.8768L15.2095 8.58173L15.7522 10.5904C17.1299 10.2772 18.4848 10.0519 19.7676 9.92209L17.3538 4.08331H12.8944L9.46349 12.6066L9.05361 13.6262C4.04389 15.8792 0.855893 18.8464 1.50108 21.0001C2.31706 23.7266 8.96632 24.12 16.3481 21.8784C17.1223 21.6455 17.8699 21.3896 18.5948 21.1185L18.796 21.8593L19.1945 23.3333H25.32L23.7526 19.5452L23.4565 18.8349C26.8153 16.853 28.7547 14.6076 28.2347 12.8854ZM22.9518 17.6129L22.7468 17.1127L22.6481 16.8759L20.8872 12.6143C20.4887 12.5723 20.0636 12.5493 19.612 12.5493C18.5948 12.5493 17.5018 12.6601 16.3708 12.8663L17.1982 15.9251L17.6992 17.7848L18.1849 19.5834L18.3861 20.3242C17.6726 20.622 16.9173 20.8932 16.1317 21.1338C10.6666 22.7949 5.67205 22.2641 4.97752 19.95C4.53348 18.4645 5.96808 16.6086 8.49571 15.0277L7.98335 16.2955L7.6266 17.1776L6.29826 20.4769C7.05352 21.0154 8.4236 21.3361 10.1315 21.3361C10.6552 21.3361 11.2017 21.3056 11.7596 21.2483L13.8811 13.4696L14.1165 12.6104C19.3842 11.1288 24.0979 11.694 24.7697 13.9393C25.0999 15.0468 24.3864 16.3604 22.9556 17.6129H22.9518Z" fill="#697077"/>
</g>
<g clip-path="url(#clip2_0_727)">
<path d="M40.935 16.9541H36.7379L36.0468 18.9194H33.8351L37.6175 8.61395H40.0805L43.863 18.9194H41.6262L40.935 16.9541ZM40.3696 15.3082L38.849 11.0091L37.3285 15.3082H40.3696Z" fill="#697077"/>
<path d="M52.3197 11.5494C52.9354 12.1636 53.237 13.0234 53.237 14.1165V18.9069H51.1259V14.3991C51.1259 13.7481 50.9625 13.2567 50.6232 12.9005C50.2839 12.5443 49.8441 12.3724 49.266 12.3724C48.688 12.3724 48.223 12.5443 47.8838 12.9005C47.5445 13.2445 47.3811 13.7481 47.3811 14.3991V18.9069H45.27V10.7387H47.3811V11.7582C47.6576 11.402 48.022 11.1318 48.4618 10.923C48.9016 10.7265 49.3791 10.6159 49.9069 10.6159C50.8997 10.6159 51.7039 10.923 52.3197 11.5371V11.5494Z" fill="#697077"/>
<path d="M60.162 10.9844C60.6395 11.2301 61.0039 11.5371 61.2804 11.9179V10.751H63.4041V18.9806C63.4041 19.7421 63.2533 20.4177 62.9391 21.0073C62.625 21.5969 62.16 22.0759 61.5317 22.4198C60.9034 22.7638 60.1494 22.948 59.2698 22.948C58.0885 22.948 57.1084 22.6778 56.3544 22.1373C55.6004 21.5969 55.1606 20.8599 55.06 19.9264H57.1586C57.2717 20.2949 57.5105 20.6019 57.8749 20.823C58.2393 21.0441 58.6917 21.1547 59.2069 21.1547C59.8227 21.1547 60.3128 20.9704 60.7023 20.6142C61.0919 20.258 61.2804 19.7176 61.2804 18.9806V17.7155C61.0039 18.0962 60.6395 18.4156 60.162 18.6735C59.6845 18.9315 59.1441 19.0543 58.5283 19.0543C57.8246 19.0543 57.1838 18.8823 56.5931 18.5261C56.0151 18.1699 55.5501 17.6786 55.2108 17.0276C54.8716 16.3889 54.7082 15.6396 54.7082 14.8044C54.7082 13.9692 54.8716 13.2445 55.2108 12.6057C55.5501 11.967 56.0025 11.4757 56.5806 11.1318C57.1586 10.7879 57.7995 10.6159 58.5158 10.6159C59.1441 10.6159 59.6845 10.7387 60.162 10.9721V10.9844ZM60.9788 13.5392C60.7777 13.183 60.5013 12.9005 60.162 12.7163C59.8227 12.5198 59.4583 12.4338 59.0561 12.4338C58.654 12.4338 58.3022 12.532 57.9754 12.7163C57.6487 12.9005 57.3722 13.1708 57.1712 13.5392C56.9701 13.8955 56.857 14.3254 56.857 14.8167C56.857 15.308 56.9576 15.7379 57.1712 16.1064C57.3722 16.4749 57.6487 16.7574 57.988 16.9539C58.3273 17.1504 58.6791 17.2487 59.0687 17.2487C59.4583 17.2487 59.8227 17.1504 60.1745 16.9662C60.5138 16.7697 60.7903 16.4994 60.9913 16.1432C61.1924 15.787 61.2929 15.3571 61.2929 14.8535C61.2929 14.3499 61.1924 13.92 60.9913 13.5638L60.9788 13.5392Z" fill="#697077"/>
<path d="M73.1805 15.4551H67.0733C67.1235 16.0447 67.3372 16.5114 67.7016 16.843C68.0786 17.1747 68.531 17.3466 69.0713 17.3466C69.8504 17.3466 70.4159 17.015 70.7426 16.364H73.0171C72.7784 17.1501 72.3134 17.8011 71.6348 18.3047C70.9563 18.8083 70.1143 19.0663 69.1216 19.0663C68.3173 19.0663 67.6011 18.8943 66.9602 18.5381C66.3193 18.1942 65.8292 17.6906 65.4648 17.0519C65.1129 16.4131 64.9244 15.6762 64.9244 14.8409C64.9244 14.0057 65.1004 13.2564 65.4522 12.6177C65.8041 11.979 66.2942 11.4877 66.935 11.1438C67.5759 10.7998 68.2922 10.6279 69.1216 10.6279C69.951 10.6279 70.6295 10.7998 71.2579 11.1315C71.8862 11.4631 72.3763 11.9421 72.7156 12.5563C73.0674 13.1704 73.2308 13.8706 73.2308 14.669C73.2308 14.9638 73.2056 15.234 73.1679 15.4674L73.1805 15.4551ZM71.0568 14.0671C71.0568 13.5389 70.8557 13.109 70.4662 12.7897C70.0892 12.4703 69.6117 12.3106 69.0588 12.3106C68.531 12.3106 68.0911 12.4703 67.7393 12.7774C67.3874 13.0845 67.1612 13.5144 67.0858 14.0671H71.0568Z" fill="#697077"/>
<path d="M76.8874 8.01178V18.919H74.7762V8.01178H76.8874Z" fill="#697077"/>
<path d="M86.3999 14.5095C86.7769 14.9762 86.9779 15.5167 86.9779 16.1308C86.9779 16.6835 86.8397 17.1626 86.5632 17.5802C86.2868 17.9978 85.8846 18.3295 85.3694 18.5628C84.8542 18.7962 84.2259 18.919 83.5096 18.919H78.9732V8.62592H83.3211C84.0374 8.62592 84.6531 8.73646 85.1684 8.96984C85.6836 9.19093 86.0731 9.51029 86.3496 9.91563C86.6135 10.321 86.7517 10.7754 86.7517 11.2913C86.7517 11.8932 86.5884 12.3968 86.2616 12.7898C85.9349 13.1829 85.4951 13.4777 84.9547 13.6496C85.5454 13.7602 86.0354 14.0427 86.4124 14.5217L86.3999 14.5095ZM81.0843 12.8758H83.0195C83.5222 12.8758 83.9117 12.7653 84.1756 12.5442C84.4521 12.3231 84.5778 12.0037 84.5778 11.5984C84.5778 11.1931 84.4395 10.8614 84.1756 10.6403C83.8992 10.4192 83.5222 10.2964 83.0195 10.2964H81.0843V12.8758ZM84.4018 16.8801C84.6909 16.6467 84.8291 16.315 84.8291 15.8729C84.8291 15.4307 84.6783 15.0868 84.3767 14.8288C84.0751 14.5831 83.673 14.448 83.1578 14.448H81.0718V17.224H83.1955C83.7107 17.224 84.1128 17.1012 84.3893 16.8678L84.4018 16.8801Z" fill="#697077"/>
<path d="M91.8408 10.9964C92.2806 10.7507 92.7832 10.6279 93.3361 10.6279V12.7897H92.7832C92.1172 12.7897 91.6146 12.9371 91.2878 13.2441C90.9485 13.5512 90.7852 14.0794 90.7852 14.8409V18.9066H88.674V10.7384H90.7852V12.0036C91.0616 11.5737 91.4135 11.2297 91.8533 10.9841L91.8408 10.9964Z" fill="#697077"/>
<path d="M96.8683 10.7509V18.919H94.7571V10.7509H96.8683Z" fill="#697077"/>
<path d="M98.9156 12.6059C99.2548 11.9672 99.7072 11.4758 100.298 11.1319C100.876 10.788 101.529 10.616 102.246 10.616C102.786 10.616 103.301 10.7266 103.804 10.9599C104.294 11.1933 104.683 11.5004 104.985 11.8812V7.99976H107.121V18.907H104.985V17.7033C104.721 18.1086 104.357 18.428 103.879 18.6736C103.402 18.9193 102.861 19.0421 102.233 19.0421C101.529 19.0421 100.888 18.8702 100.298 18.514C99.7198 18.1578 99.2548 17.6664 98.9156 17.0154C98.5763 16.3767 98.4129 15.6275 98.4129 14.7922C98.4129 13.957 98.5763 13.2323 98.9156 12.5936V12.6059ZM104.683 13.5394C104.482 13.1832 104.206 12.9007 103.867 12.7164C103.527 12.5199 103.163 12.4339 102.761 12.4339C102.359 12.4339 102.007 12.5322 101.68 12.7164C101.353 12.9007 101.077 13.1709 100.876 13.5394C100.675 13.8956 100.562 14.3255 100.562 14.8168C100.562 15.3081 100.662 15.738 100.876 16.1065C101.077 16.475 101.353 16.7575 101.693 16.954C102.032 17.1506 102.384 17.2488 102.773 17.2488C103.163 17.2488 103.527 17.1506 103.879 16.9663C104.219 16.7698 104.495 16.4996 104.696 16.1434C104.897 15.7871 104.998 15.3572 104.998 14.8536C104.998 14.35 104.897 13.9201 104.696 13.5639L104.683 13.5394Z" fill="#697077"/>
<path d="M114.083 10.9844C114.56 11.2301 114.925 11.5371 115.201 11.9179V10.751H117.325V18.9806C117.325 19.7421 117.174 20.4177 116.86 21.0073C116.546 21.5969 116.081 22.0759 115.453 22.4198C114.824 22.7638 114.07 22.948 113.191 22.948C112.01 22.948 111.029 22.6778 110.275 22.1373C109.521 21.5969 109.082 20.8599 108.981 19.9264H111.08C111.193 20.2949 111.431 20.6019 111.796 20.823C112.16 21.0441 112.613 21.1547 113.128 21.1547C113.744 21.1547 114.234 20.9704 114.623 20.6142C115.013 20.258 115.201 19.7176 115.201 18.9806V17.7155C114.925 18.0962 114.56 18.4156 114.083 18.6735C113.605 18.9315 113.065 19.0543 112.449 19.0543C111.746 19.0543 111.105 18.8823 110.514 18.5261C109.936 18.1699 109.471 17.6786 109.132 17.0276C108.793 16.3889 108.629 15.6396 108.629 14.8044C108.629 13.9692 108.793 13.2445 109.132 12.6057C109.471 11.967 109.924 11.4757 110.502 11.1318C111.08 10.7879 111.72 10.6159 112.437 10.6159C113.065 10.6159 113.605 10.7387 114.083 10.9721V10.9844ZM114.9 13.5392C114.699 13.183 114.422 12.9005 114.083 12.7163C113.744 12.5198 113.379 12.4338 112.977 12.4338C112.575 12.4338 112.223 12.532 111.896 12.7163C111.57 12.9005 111.293 13.1708 111.092 13.5392C110.891 13.8955 110.778 14.3254 110.778 14.8167C110.778 15.308 110.879 15.7379 111.092 16.1064C111.293 16.4749 111.57 16.7574 111.909 16.9539C112.248 17.1504 112.6 17.2487 112.99 17.2487C113.379 17.2487 113.744 17.1504 114.096 16.9662C114.435 16.7697 114.711 16.4994 114.912 16.1432C115.113 15.787 115.214 15.3571 115.214 14.8535C115.214 14.3499 115.113 13.92 114.912 13.5638L114.9 13.5392Z" fill="#697077"/>
<path d="M127.103 15.4551H120.996C121.046 16.0447 121.259 16.5114 121.624 16.843C122.001 17.1747 122.453 17.3466 122.994 17.3466C123.773 17.3466 124.338 17.015 124.665 16.364H126.939C126.701 17.1501 126.236 17.8011 125.557 18.3047C124.879 18.8083 124.037 19.0663 123.044 19.0663C122.24 19.0663 121.523 18.8943 120.882 18.5381C120.242 18.1942 119.751 17.6906 119.387 17.0519C119.035 16.4131 118.847 15.6762 118.847 14.8409C118.847 14.0057 119.023 13.2564 119.374 12.6177C119.726 11.979 120.216 11.4877 120.857 11.1438C121.498 10.7998 122.214 10.6279 123.044 10.6279C123.873 10.6279 124.552 10.7998 125.18 11.1315C125.808 11.4631 126.298 11.9421 126.638 12.5563C126.99 13.1704 127.153 13.8706 127.153 14.669C127.153 14.9638 127.128 15.234 127.09 15.4674L127.103 15.4551ZM124.979 14.0671C124.979 13.5389 124.778 13.109 124.388 12.7897C124.011 12.4703 123.534 12.3106 122.981 12.3106C122.453 12.3106 122.013 12.4703 121.662 12.7774C121.31 13.0845 121.083 13.5144 121.008 14.0671H124.979Z" fill="#697077"/>
<path d="M95.7991 5.06396L95.2336 6.98011L94.467 6.4765L94.9823 7.22577L93.0219 7.7785V7.79078L94.9823 8.34351L94.467 9.09277V9.10506L95.2336 8.58917L95.7991 10.5053H95.8116L96.3771 8.58917L97.1437 9.10506L97.1562 9.09277L96.6787 8.4295L101.592 7.79078V7.7785L96.6787 7.15207L97.1562 6.4765H97.1437L96.3771 6.98011L95.8116 5.06396H95.7991Z" fill="#697077"/>
</g>
</g>
<defs>
<clipPath id="clip0_0_727">
<rect width="128" height="28" fill="white"/>
</clipPath>
<clipPath id="clip1_0_727">
<rect width="28" height="28" fill="white" transform="translate(0.835083)"/>
</clipPath>
<clipPath id="clip2_0_727">
<rect width="93.33" height="17.8717" fill="white" transform="translate(33.8351 5.06415)"/>
</clipPath>
</defs>
</svg>
