<svg width="24" height="24" viewBox="0 0 24 24" fill="none" xmlns="http://www.w3.org/2000/svg">
<g clip-path="url(#clip0_249_16)">
<path d="M8.4609 14.7305L9.59943 15.8359L9.32492 17.3828C9.29567 17.5465 9.31311 17.7152 9.37555 17.8694C9.43742 18.0241 9.54149 18.1574 9.67593 18.2558C9.81037 18.3542 9.969 18.4127 10.1355 18.4246C10.1574 18.4262 10.1794 18.4268 10.2013 18.4268C10.3453 18.4268 10.4871 18.3919 10.6142 18.325L12.0211 17.5887L13.4318 18.3272C13.5539 18.3897 13.69 18.4234 13.8267 18.4251C14.0186 18.4313 14.2081 18.3739 14.369 18.2609C14.5074 18.1619 14.6137 18.0263 14.6767 17.8682C14.7391 17.7113 14.756 17.5414 14.7256 17.3755L14.4511 15.8314L15.584 14.7316L15.5897 14.7266C15.7038 14.6124 15.7854 14.4695 15.8242 14.3126C15.8636 14.1556 15.8591 13.9914 15.8119 13.8367L15.8085 13.8266C15.7567 13.6679 15.6622 13.5279 15.5351 13.4216C15.408 13.3147 15.2533 13.2455 15.0901 13.2224L13.5185 12.9935L12.8215 11.5883C12.749 11.4381 12.6353 11.3116 12.4936 11.2221C12.3518 11.1332 12.1887 11.0865 12.0211 11.0865C11.8534 11.0865 11.6903 11.1338 11.5485 11.2221C11.4068 11.311 11.2932 11.4376 11.2212 11.5861L10.531 12.9969L8.96322 13.2252C8.79841 13.2489 8.64371 13.3175 8.51602 13.4244C8.38833 13.5312 8.29383 13.6719 8.24208 13.8299L8.2387 13.8401C8.19145 13.9948 8.18751 14.159 8.22633 14.3154C8.2657 14.4718 8.34671 14.6152 8.4609 14.7294V14.7305ZM11.2797 14.0257L12.0211 12.5103L12.7715 14.0229L14.4478 14.267L13.2378 15.4415L13.5348 17.1133L12.0194 16.3202L10.5158 17.1077L10.8111 15.4455L9.60112 14.2709L11.2791 14.0268L11.2797 14.0257Z" fill="#697077"/>
<path d="M18.0079 6.0965H17.2851V5.58404C17.2851 4.71046 16.5746 4 15.701 4C14.8275 4 14.117 4.71046 14.117 5.58404V6.0965H9.93357V5.58404C9.93357 4.71046 9.22311 4 8.34952 4C7.47594 4 6.76548 4.71046 6.76548 5.58404V6.0965H6.04265C4.36466 6.0965 3 7.46116 3 9.13858V17.6731C3 19.3505 4.36466 20.7151 6.04208 20.7151H18.0079C19.6853 20.7151 21.05 19.3505 21.05 17.6731V9.13858C21.05 7.46116 19.6853 6.0965 18.0079 6.0965ZM15.2415 5.58404C15.2415 5.33091 15.4473 5.12503 15.7005 5.12503C15.9536 5.12503 16.1595 5.33091 16.1595 5.58404V7.73398C16.1595 7.98711 15.9536 8.19299 15.7005 8.19299C15.4473 8.19299 15.2415 7.98711 15.2415 7.73398V5.58404ZM7.88995 7.22153V5.58404C7.88995 5.33091 8.09583 5.12503 8.34896 5.12503C8.60209 5.12503 8.80797 5.33091 8.80797 5.58404V7.73398C8.80797 7.98711 8.60209 8.19299 8.34896 8.19299C8.09583 8.19299 7.88995 7.98711 7.88995 7.73398V7.22153ZM19.925 17.6731C19.925 18.73 19.0649 19.5901 18.0079 19.5901H6.04208C4.98512 19.5901 4.12503 18.73 4.12503 17.6731V10.8323H19.925V17.6731ZM19.925 9.70728H4.12503V9.13858C4.12503 8.08161 4.98512 7.22153 6.04208 7.22153H6.76492V7.73398C6.76492 8.60756 7.47537 9.31802 8.34896 9.31802C9.22255 9.31802 9.933 8.60756 9.933 7.73398V7.22153H14.1164V7.73398C14.1164 8.60756 14.8269 9.31802 15.7005 9.31802C16.5741 9.31802 17.2845 8.60756 17.2845 7.73398V7.22153H18.0074C19.0643 7.22153 19.9244 8.08161 19.9244 9.13858V9.70728H19.925Z" fill="#697077"/>
</g>
<defs>
<clipPath id="clip0_249_16">
<rect width="18.05" height="16.7151" fill="white" transform="translate(3 4)"/>
</clipPath>
</defs>
</svg>
