<svg width="24" height="24" viewBox="0 0 24 24" fill="none" xmlns="http://www.w3.org/2000/svg">
<g clip-path="url(#clip0_138_4323)">
<path d="M18.408 5.8962H5.6448C4.18412 5.8962 3 7.08032 3 8.541V17.6442C3 19.1049 4.18412 20.289 5.6448 20.289H18.408C19.8687 20.289 21.0528 19.1049 21.0528 17.6442V8.541C21.0528 7.08032 19.8687 5.8962 18.408 5.8962Z" fill="url(#paint0_linear_138_4323)"/>
<path d="M13.9602 17.8476C13.9044 17.8476 13.8492 17.8344 13.8 17.8092L12.0216 16.878L10.2432 17.8092C10.1856 17.8398 10.1202 17.853 10.0554 17.8482C9.99059 17.8434 9.92819 17.8206 9.87539 17.7822C9.82259 17.7438 9.78179 17.691 9.75779 17.6304C9.73319 17.5698 9.72659 17.5038 9.73799 17.4396L10.0866 15.4764L8.64959 14.0814C8.60459 14.0364 8.57279 13.9806 8.55779 13.9194C8.54219 13.8582 8.54399 13.7934 8.56259 13.7328C8.58299 13.671 8.62019 13.6158 8.66999 13.5738C8.71979 13.5318 8.78039 13.5048 8.84519 13.4958L10.833 13.2066L11.7084 11.4174C11.7372 11.3586 11.7816 11.3088 11.8368 11.274C11.892 11.2392 11.9562 11.2206 12.0222 11.2206C12.0882 11.2206 12.1518 11.2392 12.2076 11.274C12.2628 11.3088 12.3078 11.3586 12.336 11.4174L13.2216 13.203L15.2094 13.4922C15.2742 13.5012 15.3348 13.5282 15.3846 13.5702C15.4344 13.6122 15.4716 13.6674 15.492 13.7292C15.5106 13.7898 15.5124 13.854 15.4968 13.9158C15.4812 13.977 15.4494 14.0334 15.405 14.0778L13.968 15.4728L14.3166 17.436C14.3292 17.5014 14.3226 17.5692 14.298 17.631C14.2734 17.6928 14.2314 17.7462 14.1774 17.7852C14.1144 17.8296 14.0382 17.8518 13.9614 17.8482L13.9602 17.8476Z" fill="url(#paint1_linear_138_4323)"/>
<path d="M21.0528 8.541C21.0528 7.0866 19.8624 5.8962 18.408 5.8962H5.6448C4.1904 5.8962 3 7.0866 3 8.541V9.7476H21.0528V8.541Z" fill="url(#paint2_linear_138_4323)"/>
<path d="M7.01581 4.7496V7.0428C7.01581 7.64457 7.50364 8.1324 8.10541 8.1324H8.10601C8.70778 8.1324 9.19561 7.64457 9.19561 7.0428V4.7496C9.19561 4.14783 8.70778 3.66 8.10601 3.66H8.10541C7.50364 3.66 7.01581 4.14783 7.01581 4.7496Z" fill="url(#paint3_linear_138_4323)"/>
<path d="M14.8572 4.7502V7.0434C14.8572 7.64517 15.345 8.133 15.9468 8.133H15.9474C16.5491 8.133 17.037 7.64517 17.037 7.0434V4.7502C17.037 4.14843 16.5491 3.6606 15.9474 3.6606H15.9468C15.345 3.6606 14.8572 4.14843 14.8572 4.7502Z" fill="url(#paint4_linear_138_4323)"/>
</g>
<defs>
<linearGradient id="paint0_linear_138_4323" x1="12.0264" y1="5.6712" x2="12.0264" y2="20.61" gradientUnits="userSpaceOnUse">
<stop stop-color="#DEFFFF"/>
<stop offset="1" stop-color="#7FF5FD"/>
</linearGradient>
<linearGradient id="paint1_linear_138_4323" x1="8.54639" y1="14.535" x2="15.5064" y2="14.535" gradientUnits="userSpaceOnUse">
<stop stop-color="#9B8BF9"/>
<stop offset="1" stop-color="#6C54F6"/>
</linearGradient>
<linearGradient id="paint2_linear_138_4323" x1="21.6072" y1="7.8222" x2="2.895" y2="7.8222" gradientUnits="userSpaceOnUse">
<stop stop-color="#C4BBFB"/>
<stop offset="1" stop-color="#EBECF9"/>
</linearGradient>
<linearGradient id="paint3_linear_138_4323" x1="8.10541" y1="3.6234" x2="8.10541" y2="8.0958" gradientUnits="userSpaceOnUse">
<stop stop-color="#9B8BF9"/>
<stop offset="1" stop-color="#6C54F6"/>
</linearGradient>
<linearGradient id="paint4_linear_138_4323" x1="15.9468" y1="3.624" x2="15.9468" y2="8.0964" gradientUnits="userSpaceOnUse">
<stop stop-color="#9B8BF9"/>
<stop offset="1" stop-color="#6C54F6"/>
</linearGradient>
<clipPath id="clip0_138_4323">
<rect width="18.0528" height="16.629" fill="white" transform="translate(3 3.66)"/>
</clipPath>
</defs>
</svg>
