<svg width="25" height="24" viewBox="0 0 25 24" fill="none" xmlns="http://www.w3.org/2000/svg">
<g clip-path="url(#clip0_138_4354)">
<path d="M18.0897 5.60633C16.7409 4.24853 14.9613 3.40433 13.0569 3.21893C11.1525 3.03293 9.24325 3.51773 7.65745 4.58873C6.07225 5.65973 4.91005 7.25093 4.37185 9.08693C3.83365 10.9229 3.95305 12.8891 4.70905 14.6471C4.78765 14.8103 4.81345 14.9945 4.78285 15.1733L4.05985 18.6497C4.03225 18.7829 4.03765 18.9209 4.07665 19.0517C4.11565 19.1825 4.18585 19.3013 4.28185 19.3979C4.36045 19.4759 4.45405 19.5377 4.55725 19.5785C4.66045 19.6193 4.77085 19.6391 4.88185 19.6361H5.04625L8.56405 18.9293C8.74285 18.9077 8.92405 18.9335 9.09025 19.0031C10.8477 19.7591 12.8145 19.8785 14.6505 19.3403C16.4865 18.8021 18.0771 17.6399 19.1487 16.0547C20.2197 14.4695 20.7045 12.5597 20.5185 10.6553C20.3325 8.75093 19.4883 6.97133 18.1311 5.62253L18.0903 5.60633H18.0897ZM8.99125 12.2387C8.82865 12.2387 8.66965 12.1907 8.53465 12.1001C8.39965 12.0095 8.29405 11.8811 8.23165 11.7311C8.16925 11.5811 8.15305 11.4155 8.18485 11.2565C8.21665 11.0969 8.29465 10.9505 8.40985 10.8359C8.52505 10.7207 8.67145 10.6427 8.83045 10.6109C8.99005 10.5791 9.15505 10.5953 9.30505 10.6577C9.45505 10.7201 9.58345 10.8251 9.67405 10.9607C9.76465 11.0957 9.81265 11.2547 9.81265 11.4173C9.81265 11.6351 9.72625 11.8445 9.57205 11.9987C9.41785 12.1529 9.20905 12.2393 8.99065 12.2393L8.99125 12.2387ZM12.2787 12.2387C12.1161 12.2387 11.9571 12.1907 11.8221 12.1001C11.6871 12.0095 11.5815 11.8811 11.5191 11.7311C11.4567 11.5811 11.4405 11.4155 11.4723 11.2565C11.5041 11.0969 11.5821 10.9505 11.6973 10.8359C11.8125 10.7207 11.9589 10.6427 12.1179 10.6109C12.2775 10.5791 12.4425 10.5953 12.5925 10.6577C12.7425 10.7201 12.8709 10.8251 12.9615 10.9607C13.0521 11.0957 13.1001 11.2547 13.1001 11.4173C13.1001 11.6351 13.0137 11.8445 12.8595 11.9987C12.7053 12.1529 12.4965 12.2393 12.2781 12.2393L12.2787 12.2387ZM15.5661 12.2387C15.4035 12.2387 15.2445 12.1907 15.1095 12.1001C14.9745 12.0095 14.8689 11.8811 14.8065 11.7311C14.7441 11.5811 14.7279 11.4155 14.7597 11.2565C14.7915 11.0969 14.8695 10.9505 14.9847 10.8359C15.0999 10.7207 15.2463 10.6427 15.4053 10.6109C15.5649 10.5791 15.7299 10.5953 15.8799 10.6577C16.0299 10.7201 16.1583 10.8251 16.2489 10.9607C16.3395 11.0957 16.3875 11.2547 16.3875 11.4173C16.3875 11.6351 16.3011 11.8445 16.1469 11.9987C15.9927 12.1529 15.7839 12.2393 15.5655 12.2393L15.5661 12.2387Z" fill="url(#paint0_linear_138_4354)"/>
<path d="M14.3258 14.2254C13.6856 14.8614 13.2872 15.7014 13.1996 16.5996C13.112 17.4978 13.3406 18.3984 13.8458 19.1466C14.351 19.8942 15.1016 20.4426 15.9674 20.6964C16.8338 20.9502 17.7608 20.8938 18.59 20.5374C18.668 20.5044 18.7538 20.4924 18.8384 20.5026L20.498 20.8362H20.5754C20.6276 20.8374 20.6798 20.8284 20.7284 20.8092C20.777 20.79 20.8214 20.7606 20.8586 20.724C20.9042 20.6784 20.9372 20.6226 20.9552 20.5608C20.9732 20.499 20.9762 20.4342 20.963 20.3712L20.6216 18.7314C20.6072 18.6468 20.6192 18.5604 20.6564 18.483C21.0128 17.6538 21.0692 16.7262 20.8154 15.8604C20.5616 14.994 20.0132 14.244 19.2656 13.7388C18.518 13.2336 17.6168 13.005 16.7186 13.0926C15.8204 13.1802 14.981 13.5786 14.3444 14.2188L14.3252 14.2266L14.3258 14.2254Z" fill="url(#paint1_linear_138_4354)"/>
<path d="M8.99121 12.2388C8.82861 12.2388 8.66961 12.1908 8.53461 12.1002C8.39961 12.0096 8.29401 11.8812 8.23161 11.7312C8.16921 11.5812 8.15301 11.4156 8.18481 11.2566C8.21661 11.097 8.29461 10.9506 8.40981 10.836C8.52501 10.7208 8.67141 10.6428 8.83041 10.611C8.99001 10.5792 9.15501 10.5954 9.30501 10.6578C9.45501 10.7202 9.58341 10.8252 9.67401 10.9608C9.76461 11.0958 9.81261 11.2548 9.81261 11.4174C9.81261 11.6352 9.72621 11.8446 9.57201 11.9988C9.41781 12.153 9.20901 12.2394 8.99061 12.2394L8.99121 12.2388Z" fill="url(#paint2_linear_138_4354)"/>
<path d="M12.2787 12.2388C12.1161 12.2388 11.9571 12.1908 11.8221 12.1002C11.6871 12.0096 11.5815 11.8812 11.5191 11.7312C11.4567 11.5812 11.4405 11.4156 11.4723 11.2566C11.5041 11.097 11.5821 10.9506 11.6973 10.836C11.8125 10.7208 11.9589 10.6428 12.1179 10.611C12.2775 10.5792 12.4425 10.5954 12.5925 10.6578C12.7425 10.7202 12.8709 10.8252 12.9615 10.9608C13.0521 11.0958 13.1001 11.2548 13.1001 11.4174C13.1001 11.6352 13.0137 11.8446 12.8595 11.9988C12.7053 12.153 12.4965 12.2394 12.2781 12.2394L12.2787 12.2388Z" fill="url(#paint3_linear_138_4354)"/>
<path d="M15.566 12.2388C15.4034 12.2388 15.2444 12.1908 15.1094 12.1002C14.9744 12.0096 14.8688 11.8812 14.8064 11.7312C14.744 11.5812 14.7278 11.4156 14.7596 11.2566C14.7914 11.097 14.8694 10.9506 14.9846 10.836C15.0998 10.7208 15.2462 10.6428 15.4052 10.611C15.5648 10.5792 15.7298 10.5954 15.8798 10.6578C16.0298 10.7202 16.1582 10.8252 16.2488 10.9608C16.3394 11.0958 16.3874 11.2548 16.3874 11.4174C16.3874 11.6352 16.301 11.8446 16.1468 11.9988C15.9926 12.153 15.7838 12.2394 15.5654 12.2394L15.566 12.2388Z" fill="url(#paint4_linear_138_4354)"/>
</g>
<defs>
<linearGradient id="paint0_linear_138_4354" x1="4.04005" y1="11.4257" x2="20.5569" y2="11.4257" gradientUnits="userSpaceOnUse">
<stop stop-color="#DEFFFF"/>
<stop offset="1" stop-color="#7FF5FD"/>
</linearGradient>
<linearGradient id="paint1_linear_138_4354" x1="13.1816" y1="16.9626" x2="20.9726" y2="16.9626" gradientUnits="userSpaceOnUse">
<stop stop-color="#9B8BF9"/>
<stop offset="1" stop-color="#6C54F6"/>
</linearGradient>
<linearGradient id="paint2_linear_138_4354" x1="10.6328" y1="11.4168" x2="8.98941" y2="11.4168" gradientUnits="userSpaceOnUse">
<stop stop-color="#9B8BF9"/>
<stop offset="1" stop-color="#6C54F6"/>
</linearGradient>
<linearGradient id="paint3_linear_138_4354" x1="13.6995" y1="11.4168" x2="12.0555" y2="11.4168" gradientUnits="userSpaceOnUse">
<stop stop-color="#9B8BF9"/>
<stop offset="1" stop-color="#6C54F6"/>
</linearGradient>
<linearGradient id="paint4_linear_138_4354" x1="16.9328" y1="11.4168" x2="15.2894" y2="11.4168" gradientUnits="userSpaceOnUse">
<stop stop-color="#9B8BF9"/>
<stop offset="1" stop-color="#6C54F6"/>
</linearGradient>
<clipPath id="clip0_138_4354">
<rect width="16.9326" height="17.6724" fill="white" transform="translate(4.04004 3.18)"/>
</clipPath>
</defs>
</svg>
