<svg width="25" height="24" viewBox="0 0 25 24" fill="none" xmlns="http://www.w3.org/2000/svg">
<g clip-path="url(#clip0_249_498)">
<path d="M21.1055 18.0341C21.4753 17.1511 21.5313 16.1612 21.2619 15.2423C21.1224 14.7661 20.8982 14.3213 20.6058 13.9268C20.9778 12.8276 21.1173 11.6538 21.0036 10.4863C20.8181 8.58249 19.9682 6.79189 18.6113 5.4439L18.53 5.36322L18.4914 5.34753C17.1535 4.03876 15.3976 3.22022 13.533 3.03869C11.6293 2.85325 9.70813 3.34067 8.12315 4.41133C6.53873 5.482 5.36946 7.08266 4.83161 8.91808C4.29376 10.7535 4.41366 12.7318 5.16945 14.4888L5.17953 14.5106C5.20138 14.5566 5.20923 14.6064 5.20194 14.6568L4.52907 17.8907C4.48425 18.1053 4.49377 18.3299 4.55596 18.54C4.61815 18.7501 4.733 18.944 4.88988 19.1014C5.01762 19.2286 5.16777 19.3266 5.33473 19.3933C5.5 19.4589 5.67256 19.4897 5.85073 19.4869H6.05354L9.36637 18.8213C9.4308 18.8162 9.49579 18.8269 9.55182 18.8504C10.5855 19.2953 11.6959 19.5199 12.8086 19.5199C13.2916 19.5199 13.7756 19.4773 14.2535 19.3922C14.7471 19.8875 15.3612 20.2555 16.0385 20.4544C16.4223 20.5671 16.819 20.6225 17.214 20.6225C17.7669 20.6225 18.3177 20.5133 18.8309 20.2976L20.3705 20.6068H20.4932C20.6153 20.6096 20.7347 20.5872 20.8489 20.5418C20.9649 20.4959 21.0691 20.4275 21.1605 20.3373C21.268 20.2292 21.3476 20.0948 21.3913 19.9485C21.4344 19.8029 21.4406 19.6471 21.4098 19.4981L21.1055 18.0347V18.0341ZM9.99219 17.819C9.80394 17.7394 9.60168 17.6991 9.39831 17.6991C9.3378 17.6991 9.27673 17.7024 9.21622 17.7097L9.19437 17.7125L5.94261 18.3658H5.83056C5.80255 18.3663 5.77509 18.3619 5.74876 18.3512C5.72299 18.3411 5.69946 18.3254 5.68153 18.3081C5.65744 18.284 5.63951 18.2537 5.62998 18.2212C5.62046 18.1887 5.61878 18.1534 5.62606 18.1193L6.30118 14.8731L6.3051 14.8541C6.35328 14.575 6.31462 14.2932 6.19473 14.0372C5.54538 12.5217 5.44286 10.8163 5.90675 9.23407C6.37177 7.64853 7.38192 6.2658 8.75064 5.34025C10.1199 4.41526 11.7794 3.99394 13.4244 4.15417C15.0687 4.31441 16.6162 5.04835 17.7804 6.22042L17.8622 6.30278L17.9003 6.31791C19.0264 7.47317 19.7312 8.987 19.8881 10.5944C19.9682 11.4163 19.9032 12.2421 19.7026 13.0332C19.6657 13.0063 19.6287 12.9794 19.5906 12.9537C18.7861 12.4102 17.8106 12.1631 16.8442 12.2567C15.9175 12.3469 15.0441 12.7469 14.3706 13.3867L14.3505 13.3951L14.2692 13.4758C13.5807 14.1599 13.1493 15.0692 13.0551 16.0357C12.9767 16.8402 13.1358 17.6509 13.505 18.3641C12.315 18.4806 11.1037 18.2969 9.99275 17.8184L9.99219 17.819ZM19.9912 18.1753L20.2539 19.4398L18.9883 19.1854L18.9446 19.1787C18.7693 19.1574 18.5911 19.1826 18.4247 19.2527C17.772 19.5334 17.0369 19.5782 16.3545 19.3782C16.0845 19.2992 15.8279 19.1821 15.592 19.0342C15.2323 18.809 14.9203 18.5103 14.6799 18.1546C14.6788 18.1529 14.6777 18.1506 14.6765 18.149C14.281 17.5612 14.1011 16.8497 14.1701 16.1443C14.2356 15.4737 14.523 14.8401 14.9824 14.3493L14.9976 14.3431L15.0794 14.2607C15.5802 13.7565 16.2458 13.4411 16.9529 13.3722C17.6599 13.3033 18.3743 13.4842 18.9631 13.882C19.0875 13.966 19.204 14.059 19.3138 14.1593C19.6298 14.4484 19.8825 14.8014 20.0539 15.1936C20.1055 15.3112 20.1497 15.4323 20.1862 15.5561C20.385 16.2351 20.3419 16.9668 20.064 17.6178C19.9833 17.7921 19.9576 17.9842 19.9901 18.1742L19.9912 18.1753Z" fill="#697077"/>
<path d="M9.97611 10.5423C9.83604 10.484 9.68141 10.4689 9.53294 10.4986C9.38391 10.5283 9.24721 10.6011 9.1402 10.7087C9.03263 10.8162 8.95979 10.953 8.9301 11.1014C8.90041 11.2505 8.91553 11.4045 8.9738 11.5446C9.03207 11.6847 9.13011 11.8046 9.25673 11.8892C9.38279 11.9738 9.53126 12.0186 9.68309 12.0186C9.88647 12.0186 10.082 11.9379 10.226 11.7939C10.37 11.6499 10.4507 11.4549 10.4507 11.251C10.4507 11.0992 10.4058 10.9507 10.3212 10.8247C10.2366 10.6986 10.1173 10.6 9.97667 10.5417L9.97611 10.5423Z" fill="#697077"/>
<path d="M13.5197 11.2516C13.5197 11.0997 13.4748 10.9513 13.3902 10.8252C13.3056 10.6992 13.1863 10.6005 13.0457 10.5423C12.9056 10.484 12.751 10.4689 12.6025 10.4986C12.4535 10.5283 12.3168 10.6011 12.2098 10.7087C12.1022 10.8162 12.0294 10.953 11.9997 11.1014C11.97 11.2505 11.9851 11.4045 12.0434 11.5446C12.1016 11.6847 12.1997 11.8046 12.3263 11.8892C12.4524 11.9738 12.6008 12.0186 12.7527 12.0186C12.956 12.0186 13.1516 11.9379 13.2956 11.7939C13.4396 11.6499 13.5202 11.4549 13.5202 11.251L13.5197 11.2516Z" fill="#697077"/>
<path d="M15.3961 11.8897C15.5221 11.9743 15.6706 12.0191 15.8224 12.0191C16.0258 12.0191 16.2213 11.9385 16.3653 11.7945C16.5093 11.6505 16.59 11.4555 16.59 11.2516C16.59 11.0997 16.5452 10.9513 16.4606 10.8252C16.376 10.6992 16.2566 10.6005 16.116 10.5423C15.9759 10.484 15.8213 10.4689 15.6728 10.4986C15.5238 10.5283 15.3871 10.6011 15.2801 10.7087C15.1725 10.8162 15.0997 10.953 15.07 11.1014C15.0403 11.2505 15.0554 11.4045 15.1137 11.5446C15.172 11.6847 15.27 11.8046 15.3966 11.8892L15.3961 11.8897Z" fill="#697077"/>
</g>
<defs>
<clipPath id="clip0_249_498">
<rect width="16.93" height="17.6219" fill="white" transform="translate(4.5 3)"/>
</clipPath>
</defs>
</svg>
